<?xml version="1.0" encoding="UTF-8" standalone="no"?>
<svg
   xmlns:dc="http://purl.org/dc/elements/1.1/"
   xmlns:cc="http://creativecommons.org/ns#"
   xmlns:rdf="http://www.w3.org/1999/02/22-rdf-syntax-ns#"
   xmlns:svg="http://www.w3.org/2000/svg"
   xmlns="http://www.w3.org/2000/svg"
   id="svg8"
   version="1.1"
   viewBox="0 0 300 300"
   height="300mm"
   width="300mm">
  <defs
     id="defs2" />
  <metadata
     id="metadata5">
    <rdf:RDF>
      <cc:Work
         rdf:about="">
        <dc:format>image/svg+xml</dc:format>
        <dc:type
           rdf:resource="http://purl.org/dc/dcmitype/StillImage" />
        <dc:title></dc:title>
      </cc:Work>
    </rdf:RDF>
  </metadata>
  <rect
     y="-21.339447"
     x="-38.669636"
     height="367.39285"
     width="358.32144"
     id="rect1902"
     style="display:none;opacity:1;fill:#336699;fill-opacity:1;stroke:none;stroke-width:6;stroke-linecap:butt;stroke-linejoin:miter;stroke-miterlimit:4;stroke-dasharray:none;stroke-opacity:1;paint-order:stroke markers fill" />
  <path
     id="path893"
     d="m 143.78397,11.984798 a 139.53351,139.53351 0 0 0 -35.16994,6.228044 c 53.50473,13.306668 61.90055,16.88747 84.42068,35.469152 8.96805,7.399772 11.02764,9.96859 13.39505,16.697688 2.30601,6.553448 5.10087,10.833327 8.04395,12.319145 1.20825,0.609886 6.55336,0.559644 12.39614,-0.116271 20.73188,-2.400326 30.90239,-1.154285 35.36994,4.335653 0.89125,1.095243 2.99085,2.663645 4.66379,3.484023 l 3.04014,1.491382 -6.19548,8.575186 c -8.22495,11.38118 -14.28094,18.13745 -20.35123,22.70507 -2.75002,2.06954 -5.12661,3.91816 -5.27978,4.11138 -0.15391,0.19289 2.33976,3.64777 5.54178,7.67705 5.65225,7.11413 5.90646,7.70179 8.85786,20.37137 3.14779,13.51576 4.74442,32.0168 3.72897,43.21338 -0.49844,5.49487 -6.57618,32.68819 -12.37237,55.72631 A 139.53351,139.53351 0 0 0 262.06564,234.06271 139.53351,139.53351 0 0 0 232.62971,39.210527 l -1.2206,-0.892453 A 139.53351,139.53351 0 0 0 143.78397,11.984798 Z M 53.886113,50.040357 A 139.53351,139.53351 0 0 0 36.80292,69.336853 139.53351,139.53351 0 0 0 67.29408,264.02626 a 139.53351,139.53351 0 0 0 121.49128,21.1217 c 1.22244,-12.81985 1.85423,-24.72413 1.40043,-30.7392 -0.24326,-3.2244 -0.30791,-7.59471 -0.14315,-9.71156 0.3114,-3.9934 0.32397,-28.42528 0.0202,-39.23791 -0.13906,-4.93371 -0.59902,-6.59711 -2.26033,-8.20053 -1.20675,-1.16392 -2.47725,-4.21006 -3.01584,-7.23315 -0.75295,-4.21793 -2.21526,-6.79926 -7.60315,-13.41934 -3.66917,-4.5078 -8.24291,-9.18096 -10.16372,-10.38489 -3.40497,-2.13361 -3.7699,-2.12163 -14.72623,0.4532 -6.17943,1.45326 -14.06187,3.87703 -17.5147,5.38675 -3.45275,1.50945 -12.6182,4.33653 -20.36723,6.28437 -7.74948,1.94699 -16.424678,4.66406 -19.278393,6.03839 -13.237538,6.37469 -65.5434,26.36617 -66.846563,25.54831 -1.514961,-0.94948 1.842887,-4.63741 9.950297,-10.92543 4.631608,-3.59238 7.24462,-6.01025 5.807914,-5.37228 -5.56695,2.46796 -22.288726,6.4409 -23.200135,5.51336 -0.52804,-0.5375 1.753902,-2.64678 5.37745,-4.97231 3.4618,-2.22159 10.5777,-6.92821 15.813505,-10.46034 5.235448,-3.53218 16.018518,-10.57679 23.961328,-15.65331 7.942632,-5.07647 16.665765,-11.35477 19.38383,-13.95263 2.71804,-2.59787 9.562808,-8.47185 15.211977,-13.05451 5.64918,-4.58297 13.11756,-10.7277 16.5964,-13.65446 3.47895,-2.92689 8.64466,-7.06819 11.47837,-9.20357 6.09643,-4.59442 6.96529,-6.69551 5.52421,-13.36043 -1.95285,-9.034637 -4.62502,-14.467554 -8.30388,-16.885271 -1.91743,-1.259964 -3.687,-3.278455 -3.93155,-4.486032 -0.30782,-1.519552 -4.06196,-3.955917 -12.19615,-7.912176 -6.46413,-3.143904 -14.328989,-7.179053 -17.477473,-8.966896 -3.14866,-1.787731 -6.0765,-3.182652 -6.509681,-3.120223 -0.430958,0.07086 -4.08196,-1.505429 -8.113199,-3.50366 -5.293368,-2.623804 -14.030653,-6.224823 -23.773744,-9.921875 z"
     clip-path="none"
     style="opacity:1;fill:#333333;fill-opacity:1;stroke:none;stroke-width:0.39533466;stroke-linejoin:round;stroke-miterlimit:4;stroke-dasharray:none;stroke-opacity:1" />
  <g
     transform="translate(0,3)"
     id="layer1" />
  <flowRoot
     transform="translate(0,90)"
     style="font-style:normal;font-variant:normal;font-weight:normal;font-stretch:normal;font-size:40px;line-height:125%;font-family:Raleway;-inkscape-font-specification:Raleway;letter-spacing:0px;word-spacing:0px;fill:#000000;fill-opacity:1;stroke:none;stroke-width:1px;stroke-linecap:butt;stroke-linejoin:miter;stroke-opacity:1"
     id="flowRoot1651"
     xml:space="preserve"><flowRegion
       id="flowRegion1653"><rect
         y="-120.58493"
         x="-337.14285"
         height="961.42859"
         width="1580"
         id="rect1655" /></flowRegion><flowPara
       id="flowPara1657" /></flowRoot></svg>
